<svg xmlns="http://www.w3.org/2000/svg" viewBox="0 0 400.16 189.5"><defs><style>.cls-1{fill:#0d4174;}.cls-2{fill:gray;}</style></defs><g id="Layer_2" data-name="Layer 2"><g id="Layer_1-2" data-name="Layer 1"><path class="cls-1" d="M130.13,132.88a43.21,43.21,0,0,0-8.25-3.33c-1.74-.82-3.29-1.45-4.38-2h0a9.21,9.21,0,0,1-4-3.46c0-.11-.16-.55-.33-1.26h0c0-3.07-15.53-80.23-15.53-80.23l-20.85-9.2a13.42,13.42,0,0,0,0-18.24l-.43-.81c3.5-.31,12.79-.59,17.88,4.67a28,28,0,0,1,7.25,15l25.77-.61V0H7.59V33.43L33.36,34a28,28,0,0,1,7.24-15c4.75-4.89,13.14-5,17.09-4.73A13.46,13.46,0,0,0,58,34.64C53.88,36.11,39.17,41,39.17,41L20.3,128.29a53.55,53.55,0,0,0-13.12,4.59C1.64,136,0,144.92,0,144.92H50.45s2.25,7,5.94,11.34,10.33,7.18,10.33,7.18V144.92l14,0a15.37,15.37,0,0,0,0-1.59c-.2-6,.4-10.08-3.32-14.82-3.35-4.28-7-5.66-10.78-5.66H48.4S50.65,98.64,50.65,95s5.33.41,5.33.41v22l10.64.13c7.85.44,11.51,3,15.16,7.86s4.57,11.34,4.37,16.91c0,0,0,1.56,0,2.61h51.14S135.67,136,130.13,132.88Z"/><path class="cls-1" d="M148.71,145.11a6.25,6.25,0,0,1-2.57-.55,6.19,6.19,0,0,1-2.11-1.5,6.39,6.39,0,0,1-1.19-1.95,6.18,6.18,0,0,1-.42-2.24,6.33,6.33,0,0,1,.41-2.23,6.23,6.23,0,0,1,3.32-3.46,6.29,6.29,0,0,1,2.56-.54,6.21,6.21,0,0,1,2.55.54,6,6,0,0,1,2.12,1.52,6.18,6.18,0,0,1-2.1,9.86A6.25,6.25,0,0,1,148.71,145.11Zm0-.65a5.57,5.57,0,0,0,2-.38,5.33,5.33,0,0,0,1.71-1.05,5.52,5.52,0,0,0,1.34-1.88,5.62,5.62,0,0,0,.48-2.28,5.57,5.57,0,0,0-1.82-4.14,5.7,5.7,0,0,0-1.72-1.07,5.62,5.62,0,0,0-4,0,5.66,5.66,0,0,0-3.07,3,5.66,5.66,0,0,0,0,4.54A5.39,5.39,0,0,0,145,143a5.22,5.22,0,0,0,1.71,1.05A5.57,5.57,0,0,0,148.71,144.46Zm-.88-5.47v1.7a3.2,3.2,0,0,0,.06.72,1,1,0,0,0,.2.39,1.26,1.26,0,0,0,.81.27v.19h-3.34v-.19a1.26,1.26,0,0,0,.81-.27.87.87,0,0,0,.21-.39,4.13,4.13,0,0,0,0-.72v-3.62a4.18,4.18,0,0,0,0-.73.74.74,0,0,0-.21-.38,1.1,1.1,0,0,0-.81-.27v-.2h2.5c.61,0,1.05,0,1.31,0a2.77,2.77,0,0,1,.74.17,1.8,1.8,0,0,1,.81.6,1.58,1.58,0,0,1,.28.94,1.48,1.48,0,0,1-.39,1,2.06,2.06,0,0,1-1.1.59,1.2,1.2,0,0,1,.43.29,5.88,5.88,0,0,1,.42.73,11.08,11.08,0,0,0,1.07,1.9.65.65,0,0,0,.24.21,1.1,1.1,0,0,0,.34.07v.19h-1.76l-.17-.36-.36-.78a5.61,5.61,0,0,0-1.22-2A1.15,1.15,0,0,0,148,139Zm0-.19H148a3.63,3.63,0,0,0,.88-.07,1,1,0,0,0,.49-.27,1.53,1.53,0,0,0,.52-1.19,1.71,1.71,0,0,0-.15-.71,1.5,1.5,0,0,0-.41-.55,1.53,1.53,0,0,0-.5-.23,4.29,4.29,0,0,0-.82-.06h-.17Z"/><path class="cls-2" d="M390.3,166.48h-1.6v-.83H393v.83h-1.61v4.21H390.3Zm8.82.22h0l-1.58,4h-.74l-1.58-4h0v4h-1.05v-5h1.56l1.47,3.57,1.47-3.57h1.55v5h-1Z"/><path class="cls-1" d="M168.07,38.08v-.51a5,5,0,0,0,3.58-1.22,3.59,3.59,0,0,0,1-1.74,15,15,0,0,0,.26-3.24V15.6a14.28,14.28,0,0,0-.28-3.34,3.57,3.57,0,0,0-1.07-1.77,4.07,4.07,0,0,0-1.43-.81,7.65,7.65,0,0,0-2-.3V8.89H182.7v.49a8.18,8.18,0,0,0-2.06.32,3.86,3.86,0,0,0-1.42.81,3.51,3.51,0,0,0-1.05,1.78,14.61,14.61,0,0,0-.28,3.31V28c0,1.89.06,3.3.16,4.23a6.76,6.76,0,0,0,.62,2.27,5,5,0,0,0,2.38,2.26,10.4,10.4,0,0,0,4.19.71,13.57,13.57,0,0,0,4.59-.67,7,7,0,0,0,3-2.09,8.4,8.4,0,0,0,1.32-2.18,18.92,18.92,0,0,0,1-3.21l.55,0-.3,8.77Z"/><path class="cls-1" d="M198.38,20.35l6.59-.77V31.9l0,1.62a8.35,8.35,0,0,0,.19,2.12,2.17,2.17,0,0,0,.7,1.12,5,5,0,0,0,2.36.88v.44H198.12v-.44a6.56,6.56,0,0,0,2-.48,2.3,2.3,0,0,0,1-1.06,4.57,4.57,0,0,0,.35-1.48c.07-.66.1-1.61.1-2.86V26.5a29.74,29.74,0,0,0-.11-3.07,3.23,3.23,0,0,0-.51-1.44,2.45,2.45,0,0,0-.93-.86,4.3,4.3,0,0,0-1.58-.33Zm4.77-8.45a2.17,2.17,0,0,1-1.49-.53,1.83,1.83,0,0,1,0-2.69,2.27,2.27,0,0,1,2.94,0,1.75,1.75,0,0,1,.6,1.34,1.73,1.73,0,0,1-.59,1.35A2.13,2.13,0,0,1,203.15,11.9Z"/><path class="cls-1" d="M215.15,22.27A8,8,0,0,1,217,20.63a8.07,8.07,0,0,1,4.21-1.05,9.39,9.39,0,0,1,6.05,2.07,8.66,8.66,0,0,1,3.2,7.18,9.18,9.18,0,0,1-3.07,7.31,9.93,9.93,0,0,1-6.79,2.33,10.77,10.77,0,0,1-3.69-.56l-1.28-.49a2.71,2.71,0,0,0-.94-.19c-.78,0-1.46.59-2.06,1.77h-.91V13.91a5.58,5.58,0,0,0-.82-3.43,3.27,3.27,0,0,0-2.73-1V8.93l7-.9Zm0,6.48a28.87,28.87,0,0,0,.28,4.21,9.9,9.9,0,0,0,.7,2.8,3.91,3.91,0,0,0,1.56,1.64,4.63,4.63,0,0,0,2.36.6,5.5,5.5,0,0,0,4.6-2.48,10.44,10.44,0,0,0,1.81-6.3,12,12,0,0,0-.6-3.81,8.66,8.66,0,0,0-1.68-3.07,6.18,6.18,0,0,0-1.92-1.59,4.49,4.49,0,0,0-2.14-.55,4.4,4.4,0,0,0-2.46.76,4.69,4.69,0,0,0-1.69,2A15.1,15.1,0,0,0,215.15,28.75Z"/><path class="cls-1" d="M237.73,26.45c-.06.7-.09,1.2-.09,1.52a11.49,11.49,0,0,0,.58,3.63,8.54,8.54,0,0,0,1.58,2.95,7.33,7.33,0,0,0,2.55,1.89,7.73,7.73,0,0,0,3.18.68,7.26,7.26,0,0,0,2.34-.38,5.21,5.21,0,0,0,1.83-1.07,6,6,0,0,0,1.42-2.4l.48.15a6,6,0,0,1-2.55,3.78,9.54,9.54,0,0,1-5.21,1.27,12.7,12.7,0,0,1-4.83-.83,8.6,8.6,0,0,1-3.41-2.57,9.16,9.16,0,0,1-1.95-5.95,8.89,8.89,0,0,1,3.69-7.55,10,10,0,0,1,6.11-2,9.37,9.37,0,0,1,3.39.61A7.19,7.19,0,0,1,249.47,22a6.34,6.34,0,0,1,1.67,4.49Zm10-.84a7.66,7.66,0,0,0-.85-3.29,4.58,4.58,0,0,0-1.64-1.66,4.15,4.15,0,0,0-2.18-.61,4.53,4.53,0,0,0-3.43,1.59,6.84,6.84,0,0,0-1.75,4Z"/><path class="cls-1" d="M260.73,22.87a6.47,6.47,0,0,1,1.86-2,7.63,7.63,0,0,1,4.32-1.26,3.61,3.61,0,0,1,2.27.62,1.69,1.69,0,0,1,.71,1.37,1.23,1.23,0,0,1-.43,1,1.52,1.52,0,0,1-1.08.39,1.8,1.8,0,0,1-1.35-.6l-.71-.73a2.78,2.78,0,0,0-2-.83,2.7,2.7,0,0,0-2.43,1.88,12.73,12.73,0,0,0-.87,5.23v4l0,1.62a8.94,8.94,0,0,0,.19,2.13,2.12,2.12,0,0,0,.71,1.12,4.9,4.9,0,0,0,2.35.88v.44H254.19v-.44a6.73,6.73,0,0,0,2-.48,2.33,2.33,0,0,0,1-1.06,4.32,4.32,0,0,0,.35-1.48c.07-.66.11-1.61.11-2.86V26.5a26.41,26.41,0,0,0-.12-3.07A3.23,3.23,0,0,0,257,22a2.4,2.4,0,0,0-.94-.86,4.25,4.25,0,0,0-1.58-.33v-.45l5.9-.77A17,17,0,0,1,260.73,22.87Z"/><path class="cls-1" d="M277.77,19.9h5.81v.82h-5.81V33.16a4.93,4.93,0,0,0,.82,3.21,2.88,2.88,0,0,0,1.14.84,3.87,3.87,0,0,0,1.53.3,3.41,3.41,0,0,0,1.71-.4,5.78,5.78,0,0,0,1.51-1.44l.34.28a4.65,4.65,0,0,1-2.12,1.9,8.26,8.26,0,0,1-3.4.62,6.26,6.26,0,0,1-3.93-1,2.34,2.34,0,0,1-.87-1.22,10.62,10.62,0,0,1-.21-2.58v-13h-2.45v-.35a6.45,6.45,0,0,0,2.75-1.73,8.69,8.69,0,0,0,1.22-1.57,10.63,10.63,0,0,0,.88-2l.23-.71h.85Z"/><path class="cls-1" d="M285.18,19.9h8.88v.47a4.42,4.42,0,0,0-1.35.35,1.54,1.54,0,0,0-.89,1.45,9.71,9.71,0,0,0,.93,3l3.83,9.16,3.34-7.71a12.38,12.38,0,0,0,1.24-4.07,2.05,2.05,0,0,0-.57-1.53,2.8,2.8,0,0,0-1.67-.7V19.9h6.54v.47a5.7,5.7,0,0,0-1.45.54,3,3,0,0,0-.91.88A29.84,29.84,0,0,0,301,26l-6.64,15.06a14.93,14.93,0,0,1-1.92,3.5,4.08,4.08,0,0,1-3.14,1.35,3.71,3.71,0,0,1-1.95-.44,1.29,1.29,0,0,1-.75-1.14,1.07,1.07,0,0,1,.44-.89,1.82,1.82,0,0,1,1.14-.33,3.91,3.91,0,0,1,1.37.3c.5.19.82.3,1,.34a1.53,1.53,0,0,0,.51.07c.94,0,1.71-.67,2.3-2l.71-1.63a4.28,4.28,0,0,0,.46-1.59,8.33,8.33,0,0,0-.87-2.76l-4.74-10.66-.69-1.54a20.41,20.41,0,0,0-1-1.94,2.93,2.93,0,0,0-.68-.84,3,3,0,0,0-1.38-.49Z"/><path class="cls-1" d="M177.89,75h16.25V68.17a14.93,14.93,0,0,0-.26-3.25,3.56,3.56,0,0,0-1-1.73,3.79,3.79,0,0,0-1.46-.9,7.65,7.65,0,0,0-2.14-.34v-.5h14.63V62a7.62,7.62,0,0,0-2.12.34,3.75,3.75,0,0,0-1.45.9,3.47,3.47,0,0,0-1,1.74,14.21,14.21,0,0,0-.27,3.24V83.93a14,14,0,0,0,.27,3.23,3.67,3.67,0,0,0,1,1.76,4.27,4.27,0,0,0,1.45.89,7.58,7.58,0,0,0,2.12.35v.49H189.31v-.49a7.61,7.61,0,0,0,2.14-.35,4.32,4.32,0,0,0,1.46-.89,3.66,3.66,0,0,0,1-1.73,15,15,0,0,0,.26-3.26V76H177.89v7.89a14.31,14.31,0,0,0,.27,3.25,3.56,3.56,0,0,0,1,1.74,4,4,0,0,0,1.43.89,7.61,7.61,0,0,0,2.14.35v.49H168.07v-.49a7.61,7.61,0,0,0,2.14-.35,4.05,4.05,0,0,0,1.44-.89,3.51,3.51,0,0,0,1-1.73,15.18,15.18,0,0,0,.25-3.26V68.17a15.07,15.07,0,0,0-.25-3.25,3.43,3.43,0,0,0-1-1.73,3.61,3.61,0,0,0-1.45-.9,7.77,7.77,0,0,0-2.13-.34v-.5H182.7V62a7.62,7.62,0,0,0-2.12.34,3.75,3.75,0,0,0-1.45.9,3.47,3.47,0,0,0-1,1.74,14.21,14.21,0,0,0-.27,3.24Z"/><path class="cls-1" d="M210,79c-.07.7-.1,1.21-.1,1.52a11.56,11.56,0,0,0,.59,3.64,8.63,8.63,0,0,0,1.58,3A7.18,7.18,0,0,0,214.66,89a7.59,7.59,0,0,0,3.18.69,7,7,0,0,0,2.34-.39A4.92,4.92,0,0,0,222,88.23a5.74,5.74,0,0,0,1.41-2.39l.49.15a5.93,5.93,0,0,1-2.56,3.77,9.4,9.4,0,0,1-5.2,1.28,12.5,12.5,0,0,1-4.83-.84,8.44,8.44,0,0,1-3.41-2.57A9.15,9.15,0,0,1,206,81.69a8.87,8.87,0,0,1,3.69-7.55,9.94,9.94,0,0,1,6.11-2,9.16,9.16,0,0,1,3.39.61,7,7,0,0,1,2.63,1.76A6.37,6.37,0,0,1,223.45,79Zm10-.83a7.62,7.62,0,0,0-.85-3.29,4.58,4.58,0,0,0-1.64-1.66,4.15,4.15,0,0,0-2.18-.61,4.56,4.56,0,0,0-3.43,1.58,6.87,6.87,0,0,0-1.75,4Z"/><path class="cls-1" d="M244.82,88.58l.39.21Q244.39,91,241.44,91a4.63,4.63,0,0,1-2.71-.75,6,6,0,0,1-1.47-1.71A15.23,15.23,0,0,1,235,90.27a7.48,7.48,0,0,1-3.46.77,6.38,6.38,0,0,1-4-1.14A3.63,3.63,0,0,1,226,86.84a4,4,0,0,1,1.21-3,5.69,5.69,0,0,1,1.58-1.06,16.38,16.38,0,0,1,2.59-.8c1.33-.31,2.31-.58,2.94-.79a6.54,6.54,0,0,0,1.59-.77,2.64,2.64,0,0,0,1-1.16,5,5,0,0,0,.27-1.84,5.43,5.43,0,0,0-1-3.65,3.13,3.13,0,0,0-1.17-.86,3.71,3.71,0,0,0-1.5-.32,3.09,3.09,0,0,0-1.67.45,2.76,2.76,0,0,0-1.1,1.24l-.57,1.24a1.67,1.67,0,0,1-1.65,1,1.88,1.88,0,0,1-1.31-.49,1.55,1.55,0,0,1-.52-1.2c0-.73.55-1.35,1.65-1.84a10.52,10.52,0,0,1,2.21-.64,14.41,14.41,0,0,1,2.58-.24,13.52,13.52,0,0,1,3,.34,10.59,10.59,0,0,1,2.56.88,3.44,3.44,0,0,1,1.86,2,9,9,0,0,1,.18,2.16V85.5a12.51,12.51,0,0,0,.19,2.73,1.78,1.78,0,0,0,1.87,1.52,2.14,2.14,0,0,0,1.11-.23A3.73,3.73,0,0,0,244.82,88.58Zm-7.57-8.43a15.78,15.78,0,0,1-2.72,1.69,25.5,25.5,0,0,0-2.3,1.26,6.31,6.31,0,0,0-1.17,1A4.28,4.28,0,0,0,230,87a3.34,3.34,0,0,0,.84,2.34,2.71,2.71,0,0,0,2.11.92,3.78,3.78,0,0,0,2.11-.66,4,4,0,0,0,1.49-1.74,9.68,9.68,0,0,0,.71-4.15Z"/><path class="cls-1" d="M246.75,61.37l6.59-.77V84.45l0,1.63a9,9,0,0,0,.18,2.12,2.21,2.21,0,0,0,.71,1.13,4.91,4.91,0,0,0,2.35.87v.45H246.5V90.2a6.14,6.14,0,0,0,2-.48,2.18,2.18,0,0,0,1-1.06,4.32,4.32,0,0,0,.35-1.48c.07-.66.11-1.62.11-2.87V67.54a26.53,26.53,0,0,0-.12-3.07,3.15,3.15,0,0,0-.5-1.46,2.23,2.23,0,0,0-.94-.85,4.49,4.49,0,0,0-1.58-.32Z"/><path class="cls-1" d="M263.12,72.47h5.82v.81h-5.82V85.73a5,5,0,0,0,.82,3.21,2.86,2.86,0,0,0,1.14.83,3.9,3.9,0,0,0,1.53.3,3.38,3.38,0,0,0,1.71-.39,5.84,5.84,0,0,0,1.51-1.45l.34.28a4.65,4.65,0,0,1-2.11,1.91,8.3,8.3,0,0,1-3.4.62,6.3,6.3,0,0,1-3.94-1,2.38,2.38,0,0,1-.87-1.23,10.53,10.53,0,0,1-.21-2.57v-13h-2.45v-.34a6.48,6.48,0,0,0,2.75-1.73,8.26,8.26,0,0,0,1.22-1.57,11.05,11.05,0,0,0,.88-2l.23-.7h.85Z"/><path class="cls-1" d="M278.25,60.6V75.25a13.68,13.68,0,0,1,1.42-1.43,6.34,6.34,0,0,1,1.49-.9,10.12,10.12,0,0,1,8.26.23A4,4,0,0,1,291.15,75a8.59,8.59,0,0,1,.47,3.24v6.23l0,1.63a8.29,8.29,0,0,0,.19,2.12,2.15,2.15,0,0,0,.71,1.13,4.91,4.91,0,0,0,2.35.87v.45H284.78V90.2a7.46,7.46,0,0,0,1.73-.36,2.33,2.33,0,0,0,.92-.73,3.11,3.11,0,0,0,.57-1.45,16.66,16.66,0,0,0,.16-2.71V78.18a9.31,9.31,0,0,0-.25-2.44,3.81,3.81,0,0,0-.84-1.56,4.26,4.26,0,0,0-3.29-1.26q-5.52,0-5.53,8.16V84.5l0,1.58a8.9,8.9,0,0,0,.18,2.12,2.21,2.21,0,0,0,.71,1.13,4.91,4.91,0,0,0,2.35.87v.45H271.41V90.2a6.07,6.07,0,0,0,2-.48,2.18,2.18,0,0,0,1-1.06,4.29,4.29,0,0,0,.36-1.48c.06-.66.1-1.62.1-2.87V67.54a26.53,26.53,0,0,0-.12-3.07,3.15,3.15,0,0,0-.5-1.46,2.23,2.23,0,0,0-.94-.85,4.44,4.44,0,0,0-1.58-.32v-.47Z"/><path class="cls-1" d="M313,86.61l.46.15A6,6,0,0,1,311,90a8.69,8.69,0,0,1-4.53,1,10,10,0,0,1-7.26-2.57,8.6,8.6,0,0,1-2.56-6.37,10.37,10.37,0,0,1,.71-3.73,9.37,9.37,0,0,1,1.95-3.14,9.16,9.16,0,0,1,3.42-2.29,12,12,0,0,1,4.43-.79,8.53,8.53,0,0,1,5.19,1.39,2.38,2.38,0,0,1,1.15,1.88,1.53,1.53,0,0,1-.48,1.15,1.67,1.67,0,0,1-1.17.46c-1,0-1.73-.68-2.2-2a8.64,8.64,0,0,0-.51-1.28,1.87,1.87,0,0,0-.56-.6,3,3,0,0,0-1.74-.49,4.55,4.55,0,0,0-2.48.71,6,6,0,0,0-1.7,1.55,9.14,9.14,0,0,0-1.23,2.34,12.21,12.21,0,0,0-.8,4.23,10,10,0,0,0,.73,3.72,8.73,8.73,0,0,0,2,3A6.37,6.37,0,0,0,308,90.14a5.2,5.2,0,0,0,3.63-1.31A6.58,6.58,0,0,0,313,86.61Z"/><path class="cls-1" d="M334.59,88.58l.39.21Q334.16,91,331.2,91a4.62,4.62,0,0,1-2.7-.75A5.66,5.66,0,0,1,327,88.58a15.75,15.75,0,0,1-2.31,1.69,7.52,7.52,0,0,1-3.47.77,6.35,6.35,0,0,1-4-1.14,3.63,3.63,0,0,1-1.48-3.06,4,4,0,0,1,1.21-3,5.55,5.55,0,0,1,1.58-1.06,16,16,0,0,1,2.59-.8c1.32-.31,2.3-.58,2.94-.79a6.54,6.54,0,0,0,1.59-.77,2.55,2.55,0,0,0,1-1.16,4.77,4.77,0,0,0,.28-1.84,5.49,5.49,0,0,0-1-3.65,3.17,3.17,0,0,0-1.18-.86,3.71,3.71,0,0,0-1.5-.32,3.14,3.14,0,0,0-1.67.45,2.88,2.88,0,0,0-1.1,1.24l-.57,1.24a1.65,1.65,0,0,1-1.65,1,1.87,1.87,0,0,1-1.3-.49,1.56,1.56,0,0,1-.53-1.2c0-.73.55-1.35,1.65-1.84a10.81,10.81,0,0,1,2.22-.64,14.32,14.32,0,0,1,2.58-.24,13.43,13.43,0,0,1,2.95.34,10.53,10.53,0,0,1,2.57.88,3.5,3.5,0,0,1,1.86,2,9,9,0,0,1,.18,2.16V85.5a13.42,13.42,0,0,0,.18,2.73,1.79,1.79,0,0,0,1.88,1.52,2.18,2.18,0,0,0,1.11-.23A3.89,3.89,0,0,0,334.59,88.58ZM327,80.15a15.69,15.69,0,0,1-2.71,1.69A25.5,25.5,0,0,0,322,83.1a6,6,0,0,0-1.17,1A4.28,4.28,0,0,0,319.76,87a3.38,3.38,0,0,0,.83,2.34,2.74,2.74,0,0,0,2.11.92,3.73,3.73,0,0,0,2.11-.66,4.1,4.1,0,0,0,1.5-1.74,9.7,9.7,0,0,0,.7-4.15Z"/><path class="cls-1" d="M343.33,75.44a6.45,6.45,0,0,1,1.85-2,7.66,7.66,0,0,1,4.33-1.26,3.56,3.56,0,0,1,2.26.62,1.67,1.67,0,0,1,.71,1.37,1.27,1.27,0,0,1-.42,1,1.55,1.55,0,0,1-1.09.39,1.84,1.84,0,0,1-1.35-.6l-.71-.73a2.72,2.72,0,0,0-2-.83,2.67,2.67,0,0,0-2.42,1.88,12.7,12.7,0,0,0-.87,5.23v4l0,1.62a8.9,8.9,0,0,0,.18,2.12,2.21,2.21,0,0,0,.71,1.13,5,5,0,0,0,2.36.87v.45H336.78V90.2a6.07,6.07,0,0,0,2-.48,2.16,2.16,0,0,0,1-1,4.35,4.35,0,0,0,.36-1.48c.07-.66.1-1.61.1-2.86V79.07a29.74,29.74,0,0,0-.11-3.07,3.23,3.23,0,0,0-.51-1.44,2.33,2.33,0,0,0-.94-.86,4.19,4.19,0,0,0-1.57-.33v-.45l5.89-.77A16.3,16.3,0,0,1,343.33,75.44Z"/><path class="cls-1" d="M357.65,79c-.06.7-.09,1.21-.09,1.52a11.55,11.55,0,0,0,.58,3.64,8.63,8.63,0,0,0,1.58,3A7.18,7.18,0,0,0,362.27,89a7.59,7.59,0,0,0,3.18.69,7,7,0,0,0,2.34-.39,4.92,4.92,0,0,0,1.83-1.07A5.85,5.85,0,0,0,371,85.84l.48.15A6,6,0,0,1,369,89.76,9.43,9.43,0,0,1,363.76,91a12.5,12.5,0,0,1-4.83-.84,8.51,8.51,0,0,1-3.41-2.57,9.15,9.15,0,0,1-1.94-5.94,8.86,8.86,0,0,1,3.68-7.55,9.94,9.94,0,0,1,6.11-2,9.16,9.16,0,0,1,3.39.61,7,7,0,0,1,2.63,1.76A6.37,6.37,0,0,1,371.06,79Zm10-.83a7.62,7.62,0,0,0-.85-3.29,4.5,4.5,0,0,0-1.64-1.66,4.15,4.15,0,0,0-2.18-.61,4.56,4.56,0,0,0-3.43,1.58,6.8,6.8,0,0,0-1.74,4Z"/><path class="cls-1" d="M196.23,113.87l.27,9.56H196c-.16-.41-.29-.73-.39-.94-.53-1.37-1-2.39-1.3-3.06a10.76,10.76,0,0,0-2.59-3.29,8.43,8.43,0,0,0-2.65-1.65A8.86,8.86,0,0,0,186,114a9.17,9.17,0,0,0-4.49,1,11,11,0,0,0-3.11,2.64,15.26,15.26,0,0,0-2.36,3.92,18.06,18.06,0,0,0-1.3,7.06,19.28,19.28,0,0,0,.89,6,12,12,0,0,0,2.61,4.52,11,11,0,0,0,8.38,3.38,12.25,12.25,0,0,0,4.69-.85,7.4,7.4,0,0,0,3.23-2.38,11.88,11.88,0,0,0,1.92-4.79l.52.08a11,11,0,0,1-2,5.37,9.21,9.21,0,0,1-4,2.91,16.36,16.36,0,0,1-6,1,20.88,20.88,0,0,1-6.05-.88,13.2,13.2,0,0,1-7.18-5.1,14.93,14.93,0,0,1-2.59-8.81,17.06,17.06,0,0,1,1.51-7.21,13.44,13.44,0,0,1,4.21-5.32,16.78,16.78,0,0,1,5-2.45,19.44,19.44,0,0,1,5.8-.91,19.2,19.2,0,0,1,5.86,1l1.88.57a2.89,2.89,0,0,0,1,.2,1.17,1.17,0,0,0,.94-.45,6.23,6.23,0,0,0,.39-.71Z"/><path class="cls-1" d="M199.73,134.19a8.47,8.47,0,0,1,2.74-6.18,11.32,11.32,0,0,1,16,0,8.41,8.41,0,0,1,.13,12.3,11.64,11.64,0,0,1-16.22,0,9.27,9.27,0,0,1-1.94-2.87A8.19,8.19,0,0,1,199.73,134.19Zm4.16-.24a10.85,10.85,0,0,0,1.79,6.3,5.88,5.88,0,0,0,4.92,2.88,4.91,4.91,0,0,0,2.4-.64,6.24,6.24,0,0,0,2-1.79,9.92,9.92,0,0,0,1.44-3,12.13,12.13,0,0,0,.55-3.49,11.26,11.26,0,0,0-.59-3.53,10.2,10.2,0,0,0-1.57-3.07,5.62,5.62,0,0,0-4.59-2.41,5.44,5.44,0,0,0-4.47,2.54A10.07,10.07,0,0,0,203.89,134Z"/><path class="cls-1" d="M228.86,128a6.26,6.26,0,0,1,1.86-2,7.63,7.63,0,0,1,4.32-1.26,3.53,3.53,0,0,1,2.27.62,1.68,1.68,0,0,1,.71,1.36,1.29,1.29,0,0,1-.42,1,1.61,1.61,0,0,1-1.09.38,1.8,1.8,0,0,1-1.35-.6l-.71-.72a2.75,2.75,0,0,0-2-.84,2.7,2.7,0,0,0-2.43,1.88,12.78,12.78,0,0,0-.87,5.24v4l0,1.63a8.4,8.4,0,0,0,.19,2.12,2.19,2.19,0,0,0,.71,1.12,4.8,4.8,0,0,0,2.35.88v.45H222.32v-.45a6.14,6.14,0,0,0,2-.48,2.36,2.36,0,0,0,1-1,4.39,4.39,0,0,0,.35-1.48c.07-.66.11-1.62.11-2.87v-5.25a26.61,26.61,0,0,0-.12-3.08,3.18,3.18,0,0,0-.5-1.43,2.42,2.42,0,0,0-.94-.87,4.7,4.7,0,0,0-1.58-.33v-.44l5.9-.77A16.86,16.86,0,0,1,228.86,128Z"/><path class="cls-1" d="M246.74,141.42l0,3.93v1.47a8.78,8.78,0,0,0,.19,2.12,2.36,2.36,0,0,0,.71,1.15,4.83,4.83,0,0,0,2.35.85v.45H239.9v-.45a6.79,6.79,0,0,0,2-.47,2.25,2.25,0,0,0,1-1.05,4.39,4.39,0,0,0,.35-1.49c.07-.67.11-1.63.11-2.87V130.29a5.64,5.64,0,0,0-.82-3.44,3.29,3.29,0,0,0-2.73-1v-.54l6.68-.87a7.79,7.79,0,0,1,.25,1.88v.41a13.07,13.07,0,0,1,3.18-1.53,10.76,10.76,0,0,1,3.22-.46,9.26,9.26,0,0,1,5.94,1.94,8.24,8.24,0,0,1,2.4,3.1,9.72,9.72,0,0,1,.85,4.11,10.47,10.47,0,0,1-.9,4.34,8.73,8.73,0,0,1-2.57,3.32,9.68,9.68,0,0,1-6.2,2.07,8.25,8.25,0,0,1-3-.47A12,12,0,0,1,246.74,141.42Zm0-7.1a27.11,27.11,0,0,0,.27,4.45,5.7,5.7,0,0,0,1,2.42,4.68,4.68,0,0,0,1.68,1.3,4.86,4.86,0,0,0,2.11.49,5.37,5.37,0,0,0,4.22-2.14,8.92,8.92,0,0,0,1.68-3,11.24,11.24,0,0,0,.6-3.66,12,12,0,0,0-.56-3.61,9.28,9.28,0,0,0-1.56-3,5.12,5.12,0,0,0-4.17-2.18,4.93,4.93,0,0,0-2.29.55,4.57,4.57,0,0,0-1.71,1.52,6.65,6.65,0,0,0-1,2.56A26.65,26.65,0,0,0,246.74,134.32Z"/><path class="cls-1" d="M265.08,134.19a8.47,8.47,0,0,1,2.74-6.18,11.31,11.31,0,0,1,15.95,0,8.4,8.4,0,0,1,.14,12.3,11.65,11.65,0,0,1-16.23,0,9.24,9.24,0,0,1-1.93-2.87A8.19,8.19,0,0,1,265.08,134.19Zm4.16-.24a10.85,10.85,0,0,0,1.79,6.3,5.88,5.88,0,0,0,4.92,2.88,4.91,4.91,0,0,0,2.4-.64,6.11,6.11,0,0,0,2-1.79,9.47,9.47,0,0,0,1.44-3,11.79,11.79,0,0,0,.55-3.49,11.25,11.25,0,0,0-.58-3.53,10.2,10.2,0,0,0-1.57-3.07,5.63,5.63,0,0,0-4.6-2.41,5.44,5.44,0,0,0-4.46,2.54A10.07,10.07,0,0,0,269.24,134Z"/><path class="cls-1" d="M295.1,128a6.35,6.35,0,0,1,1.85-2,7.66,7.66,0,0,1,4.33-1.26,3.55,3.55,0,0,1,2.27.62,1.68,1.68,0,0,1,.71,1.36,1.3,1.3,0,0,1-.43,1,1.57,1.57,0,0,1-1.09.38,1.83,1.83,0,0,1-1.35-.6l-.7-.72a2.75,2.75,0,0,0-2-.84,2.7,2.7,0,0,0-2.43,1.88,12.78,12.78,0,0,0-.87,5.24v4l0,1.63a8.4,8.4,0,0,0,.19,2.12,2.17,2.17,0,0,0,.7,1.12,4.89,4.89,0,0,0,2.36.88v.45H288.56v-.45a6,6,0,0,0,2-.48,2.32,2.32,0,0,0,1-1,4.64,4.64,0,0,0,.35-1.48c.07-.66.1-1.62.1-2.87v-5.25a30,30,0,0,0-.11-3.08,3.19,3.19,0,0,0-.51-1.43,2.33,2.33,0,0,0-.93-.87,4.76,4.76,0,0,0-1.58-.33v-.44l5.9-.77A16.86,16.86,0,0,1,295.1,128Z"/><path class="cls-1" d="M325,141.14l.39.22q-.83,2.23-3.78,2.24a4.6,4.6,0,0,1-2.7-.75,5.42,5.42,0,0,1-1.47-1.71,15,15,0,0,1-2.32,1.69,7.32,7.32,0,0,1-3.46.77,6.46,6.46,0,0,1-4-1.13,3.67,3.67,0,0,1-1.47-3.06,4,4,0,0,1,1.21-3,5.35,5.35,0,0,1,1.58-1.06,15.87,15.87,0,0,1,2.58-.8c1.33-.32,2.31-.58,2.94-.8a5.89,5.89,0,0,0,1.59-.77,2.55,2.55,0,0,0,1-1.15,5,5,0,0,0,.28-1.84,5.5,5.5,0,0,0-1-3.66,3.35,3.35,0,0,0-1.18-.85,3.55,3.55,0,0,0-1.5-.32,3.14,3.14,0,0,0-1.67.45,2.77,2.77,0,0,0-1.1,1.24l-.57,1.24a1.65,1.65,0,0,1-1.65,1,1.85,1.85,0,0,1-1.3-.48,1.57,1.57,0,0,1-.53-1.21c0-.72.55-1.34,1.65-1.84a11.62,11.62,0,0,1,2.21-.63,14.41,14.41,0,0,1,2.58-.24,13.45,13.45,0,0,1,3,.34,11.16,11.16,0,0,1,2.57.87,3.47,3.47,0,0,1,1.85,2.06,8.39,8.39,0,0,1,.19,2.16v7.91a13.54,13.54,0,0,0,.18,2.74,1.8,1.8,0,0,0,1.88,1.52,2.18,2.18,0,0,0,1.11-.24A3.88,3.88,0,0,0,325,141.14Zm-7.58-8.43a14.56,14.56,0,0,1-2.71,1.69,24.39,24.39,0,0,0-2.31,1.27,6.2,6.2,0,0,0-1.16,1,4.26,4.26,0,0,0-1.07,2.89,3.31,3.31,0,0,0,.83,2.33,2.7,2.7,0,0,0,2.11.92,3.8,3.8,0,0,0,2.11-.65,4.12,4.12,0,0,0,1.49-1.74,9.53,9.53,0,0,0,.71-4.15Z"/><path class="cls-1" d="M331.3,125h5.81v.81H331.3V138.3a5,5,0,0,0,.82,3.21,3,3,0,0,0,1.14.83,3.87,3.87,0,0,0,1.53.3,3.33,3.33,0,0,0,1.71-.4,5.46,5.46,0,0,0,1.5-1.44l.35.28a4.65,4.65,0,0,1-2.12,1.9,8.1,8.1,0,0,1-3.4.62,6.39,6.39,0,0,1-3.94-1,2.31,2.31,0,0,1-.86-1.23,10.62,10.62,0,0,1-.21-2.58v-13h-2.45v-.34a6.47,6.47,0,0,0,2.75-1.74,8.79,8.79,0,0,0,1.22-1.57,10.06,10.06,0,0,0,.87-2l.23-.71h.86Z"/><path class="cls-1" d="M340.68,125.49l6.59-.77V137l0,1.62a9,9,0,0,0,.18,2.12,2.16,2.16,0,0,0,.71,1.11,4.8,4.8,0,0,0,2.35.88v.45H340.43v-.45a6.14,6.14,0,0,0,2-.48,2.36,2.36,0,0,0,1-1,4.39,4.39,0,0,0,.35-1.48c.07-.66.11-1.62.11-2.87v-5.25a26.61,26.61,0,0,0-.12-3.08,3.18,3.18,0,0,0-.5-1.43,2.36,2.36,0,0,0-.94-.87,4.7,4.7,0,0,0-1.58-.33Zm4.77-8.45a2.09,2.09,0,0,1-1.48-.54,1.81,1.81,0,0,1,0-2.68,2.08,2.08,0,0,1,1.47-.55,2.11,2.11,0,0,1,1.48.55,1.75,1.75,0,0,1,.59,1.33,1.73,1.73,0,0,1-.58,1.35A2.13,2.13,0,0,1,345.45,117Z"/><path class="cls-1" d="M352.18,134.19a8.48,8.48,0,0,1,2.75-6.18,11.31,11.31,0,0,1,15.95,0,8.4,8.4,0,0,1,.14,12.3,11.65,11.65,0,0,1-16.23,0,9.24,9.24,0,0,1-1.93-2.87A8.2,8.2,0,0,1,352.18,134.19Zm4.17-.24a10.84,10.84,0,0,0,1.78,6.3,5.9,5.9,0,0,0,4.92,2.88,4.92,4.92,0,0,0,2.41-.64,6.11,6.11,0,0,0,2-1.79,9.47,9.47,0,0,0,1.44-3,11.79,11.79,0,0,0,.55-3.49,11.25,11.25,0,0,0-.58-3.53,10.2,10.2,0,0,0-1.57-3.07,5.63,5.63,0,0,0-4.6-2.41,5.44,5.44,0,0,0-4.46,2.54A10.07,10.07,0,0,0,356.35,134Z"/><path class="cls-1" d="M381,124.72a9.49,9.49,0,0,1,.32,2.32v.34a9.5,9.5,0,0,1,6.75-2.66,7.9,7.9,0,0,1,4.72,1.28,4.15,4.15,0,0,1,1.76,3.59v9a9.06,9.06,0,0,0,.18,2.13,2.19,2.19,0,0,0,.71,1.12,4.85,4.85,0,0,0,2.36.88v.45H387.65v-.45a6.34,6.34,0,0,0,2-.48,2.23,2.23,0,0,0,1-1.06,4.35,4.35,0,0,0,.36-1.48c.07-.67.1-1.62.1-2.86v-4.52a25,25,0,0,0-.17-3.42,4.15,4.15,0,0,0-.65-1.76,3.52,3.52,0,0,0-1.51-1.16,5.45,5.45,0,0,0-2.17-.42,6.14,6.14,0,0,0-2.39.47,4.37,4.37,0,0,0-2.64,3.22,19.87,19.87,0,0,0-.22,3.58v4.18l0,1.58a8.44,8.44,0,0,0,.19,2.13,2.17,2.17,0,0,0,.7,1.12,4.89,4.89,0,0,0,2.36.88v.45H374.45v-.45a6,6,0,0,0,2-.48,2.32,2.32,0,0,0,1-1,4.64,4.64,0,0,0,.35-1.48c.07-.66.1-1.62.1-2.87v-5.25a30,30,0,0,0-.11-3.08,3.31,3.31,0,0,0-.5-1.43,2.42,2.42,0,0,0-.94-.87,4.7,4.7,0,0,0-1.58-.33v-.44Z"/><path class="cls-2" d="M5.52,171.51H.35v-2.73H14.08v2.73H9V189.1H5.52Z"/><path class="cls-2" d="M19.1,168.78h3.48v8.14H29v-8.14h3.47V189.1H29v-9.45H22.58v9.45H19.1Z"/><path class="cls-2" d="M39.08,168.78H50.84v2.73H42.55v5.64h7.8v2.73h-7.8v6.49h8.53v2.73h-12Z"/><path class="cls-2" d="M67.13,168.78h11.6v2.73H70.6v5.64h7.64v2.73H70.6v9.22H67.13Z"/><path class="cls-2" d="M84.27,168.78h7.67c3,0,5.51,1.42,5.51,5.24,0,2.62-1.24,4.64-3.62,5v.05c2.16.2,3.29,1.31,3.41,4.16,0,1.31.06,2.9.12,4.13a2.07,2.07,0,0,0,1,1.76H94.47a3.31,3.31,0,0,1-.58-1.79c-.12-1.23-.09-2.36-.15-3.84-.06-2.22-.79-3.19-3.17-3.19H87.74v8.82H84.27Zm6.24,9.05c2.23,0,3.47-1.25,3.47-3.3s-1-3.3-3.28-3.3h-3v6.6Z"/><path class="cls-2" d="M103.67,168.78h11.75v2.73h-8.28v5.64h7.79v2.73h-7.79v6.49h8.52v2.73h-12Z"/><path class="cls-2" d="M121.36,168.78h11.75v2.73h-8.28v5.64h7.8v2.73h-7.8v6.49h8.53v2.73h-12Z"/><path class="cls-2" d="M139.05,168.78h6.18c6.82,0,7.68,4.16,7.68,10.16s-.86,10.16-7.68,10.16h-6.18Zm3.47,17.87h2.86c2.87,0,4.05-1.76,4.05-7.71,0-5.72-1-7.71-4.05-7.71h-2.86Z"/><path class="cls-2" d="M158.51,178.94c0-7.26,2.19-10.56,7.19-10.56s7.18,3.3,7.18,10.56-2.19,10.56-7.18,10.56S158.51,186.2,158.51,178.94Zm10.9-.08c0-6.84-1.64-8-3.71-8s-3.72,1.19-3.72,8c0,7,1.65,8.19,3.72,8.19S169.41,185.86,169.41,178.86Z"/><path class="cls-2" d="M179,168.78h5.42l3.84,15.05h.06l3.78-15.05h5.3V189.1h-3.29V172.2h-.06l-4.39,16.9h-2.92l-4.39-16.9h-.06v16.9H179Z"/><path class="cls-2" d="M216.82,171.51h-5.17v-2.73h13.73v2.73H220.3V189.1h-3.48Z"/><path class="cls-2" d="M229,178.94c0-7.26,2.2-10.56,7.19-10.56s7.19,3.3,7.19,10.56-2.2,10.56-7.19,10.56S229,186.2,229,178.94Zm10.91-.08c0-6.84-1.65-8-3.72-8s-3.72,1.19-3.72,8c0,7,1.65,8.19,3.72,8.19S239.88,185.86,239.88,178.86Z"/><path class="cls-2" d="M262.5,182.81v.51c0,2.48,1.16,3.73,3.56,3.73a3,3,0,0,0,3.29-3c0-2.13-1.15-3.07-3.1-3.61l-2.38-.77c-3.17-1.14-4.54-2.67-4.54-5.58,0-3.7,2.68-5.75,6.76-5.75,5.58,0,6.15,3.25,6.15,5.35v.46h-3.47v-.43c0-1.85-.88-2.93-3-2.93a2.68,2.68,0,0,0-2.92,2.93c0,1.74.94,2.62,3.25,3.45l2.35.79c3.07,1,4.41,2.59,4.41,5.38,0,4.33-2.8,6.12-7.18,6.12-5.39,0-6.61-3.36-6.61-6.21v-.48Z"/><path class="cls-2" d="M281.87,168.78v14.57c0,2.56,1.09,3.7,3.2,3.7s3.16-1.14,3.16-3.7V168.78h3.47V183.1c0,4.69-2.49,6.4-6.63,6.4s-6.67-1.71-6.67-6.4V168.78Z"/><path class="cls-2" d="M311.43,181.82v.42c0,3.67-1.58,7.26-6.69,7.26-5.49,0-7.19-3.3-7.19-10.56s1.7-10.56,7.22-10.56c6.18,0,6.54,4.27,6.54,6.38v.37h-3.47v-.34c0-1.88-.61-4-3.1-4s-3.72,1.48-3.72,8,1.16,8.19,3.72,8.19c2.89,0,3.22-3,3.22-4.89v-.34Z"/><path class="cls-2" d="M330.29,181.82v.42c0,3.67-1.59,7.26-6.7,7.26-5.48,0-7.19-3.3-7.19-10.56s1.71-10.56,7.22-10.56c6.18,0,6.54,4.27,6.54,6.38v.37h-3.47v-.34c0-1.88-.61-4-3.1-4s-3.72,1.48-3.72,8,1.16,8.19,3.72,8.19c2.89,0,3.22-3,3.22-4.89v-.34Z"/><path class="cls-2" d="M335.77,168.78h11.75v2.73h-8.28v5.64H347v2.73h-7.79v6.49h8.53v2.73h-12Z"/><path class="cls-2" d="M353.46,168.78h11.75v2.73h-8.28v5.64h7.8v2.73h-7.8v6.49h8.53v2.73h-12Z"/><path class="cls-2" d="M371.15,168.78h6.18c6.82,0,7.68,4.16,7.68,10.16s-.86,10.16-7.68,10.16h-6.18Zm3.47,17.87h2.86c2.87,0,4.06-1.76,4.06-7.71,0-5.72-1-7.71-4.06-7.71h-2.86Z"/></g></g></svg>